HIERARCHY
ROOT hip
{
  OFFSET 0.00112043 5.09927 -9.65472
  CHANNELS 6 Xposition Yposition Zposition Zrotation Xrotation Yrotation
  JOINT abdomen
  {
    OFFSET 0 -1.186 -1.5018
    CHANNELS 3 Zrotation Xrotation Yrotation
    JOINT abdomen2
    {
      OFFSET 0 9.964 0.2134
      CHANNELS 3 Zrotation Xrotation Yrotation
      JOINT chest
      {
        OFFSET 0 13.134 -3.2573
        CHANNELS 3 Zrotation Xrotation Yrotation
        JOINT neck
        {
          OFFSET 0 20.686 -1.6905
          CHANNELS 3 Zrotation Xrotation Yrotation
          JOINT head
          {
            OFFSET 0 7.238 -0.1237
            CHANNELS 3 Zrotation Xrotation Yrotation
            End Site
            {
              OFFSET 0 0 0
            }
          }
        }
        JOINT lCollar
        {
          OFFSET 1.7069 20.075 5.0056
          CHANNELS 3 Zrotation Xrotation Yrotation
          JOINT lShldr
          {
            OFFSET 13.6458 -0.047 -4.849
            CHANNELS 3 Zrotation Xrotation Yrotation
            JOINT lForeArm
            {
              OFFSET 28.3255 -0.9759 2.2888
              CHANNELS 3 Zrotation Xrotation Yrotation
              JOINT lHand
              {
                OFFSET 22.1583 -0.53 10.8316
                CHANNELS 3 Zrotation Xrotation Yrotation
                JOINT lThumb1
                {
                  OFFSET 0.786 0.112 2.5817
                  CHANNELS 3 Zrotation Xrotation Yrotation
                  JOINT lThumb2
                  {
                    OFFSET 0.3601 -0.878 4.2331
                    CHANNELS 3 Zrotation Xrotation Yrotation
                    JOINT lThumb2_End
                    {
                      OFFSET 1.8127 -1.216 2.2227
                      CHANNELS 3 Zrotation Xrotation Yrotation
                      End Site
                      {
                        OFFSET 0.0181 -0.0122 0.0222
                      }
                    }
                  }
                }
                JOINT lCarpal1
                {
                  OFFSET 0.9571 1.114 1.7695
                  CHANNELS 3 Zrotation Xrotation Yrotation
                  JOINT lIndex1
                  {
                    OFFSET 4.1246 0.487 4.1451
                    CHANNELS 3 Zrotation Xrotation Yrotation
                    JOINT lIndex2
                    {
                      OFFSET 3.4052 -1.454 2.7682
                      CHANNELS 3 Zrotation Xrotation Yrotation
                      JOINT lIndex2_End
                      {
                        OFFSET 1.4531 -1.795 1.2713
                        CHANNELS 3 Zrotation Xrotation Yrotation
                        End Site
                        {
                          OFFSET 0.0145 -0.0179 0.0127
                        }
                      }
                    }
                  }
                  JOINT lMid1
                  {
                    OFFSET 5.6954 0.21 2.1184
                    CHANNELS 3 Zrotation Xrotation Yrotation
                    JOINT lMid2
                    {
                      OFFSET 3.9766 -1.54 2.3863
                      CHANNELS 3 Zrotation Xrotation Yrotation
                      JOINT lMid2_End
                      {
                        OFFSET 1.4042 -1.926 1.125
                        CHANNELS 3 Zrotation Xrotation Yrotation
                        End Site
                        {
                          OFFSET 0.014 -0.0193 0.0113
                        }
                      }
                    }
                  }
                }
                JOINT lCarpal2
                {
                  OFFSET 2.0956 0.66 -0.3894
                  CHANNELS 3 Zrotation Xrotation Yrotation
                  JOINT lRing1
                  {
                    OFFSET 5.0395 -0.09 2.4971
                    CHANNELS 3 Zrotation Xrotation Yrotation
                    JOINT lRing2
                    {
                      OFFSET 3.7921 -1.552 1.4806
                      CHANNELS 3 Zrotation Xrotation Yrotation
                      JOINT lRing2_End
                      {
                        OFFSET 1.4655 -1.808 0.9609
                        CHANNELS 3 Zrotation Xrotation Yrotation
                        End Site
                        {
                          OFFSET 0.0147 -0.0181 0.0096
                        }
                      }
                    }
                  }
                  JOINT lPinky1
                  {
                    OFFSET 4.9141 -1.269 0.3591
                    CHANNELS 3 Zrotation Xrotation Yrotation
                    JOINT lPinky2
                    {
                      OFFSET 3.1477 -1.685 0.8462
                      CHANNELS 3 Zrotation Xrotation Yrotation
                      JOINT lPinky2_End
                      {
                        OFFSET 0.8055 -1.585 0.7955
                        CHANNELS 3 Zrotation Xrotation Yrotation
                        End Site
                        {
                          OFFSET 0.0081 -0.0158 0.008
                        }
                      }
                    }
                  }
                }
              }
            }
          }
        }
        JOINT rCollar
        {
          OFFSET -1.7069 20.075 5.0056
          CHANNELS 3 Zrotation Xrotation Yrotation
          JOINT rShldr
          {
            OFFSET -13.6458 -0.047 -4.849
            CHANNELS 3 Zrotation Xrotation Yrotation
            JOINT rForeArm
            {
              OFFSET -28.3255 -0.9759 2.2888
              CHANNELS 3 Zrotation Xrotation Yrotation
              JOINT rHand
              {
                OFFSET -22.1583 -0.53 10.8316
                CHANNELS 3 Zrotation Xrotation Yrotation
                JOINT rThumb1
                {
                  OFFSET -0.786 0.112 2.5817
                  CHANNELS 3 Zrotation Xrotation Yrotation
                  JOINT rThumb2
                  {
                    OFFSET -0.3601 -0.878 4.2331
                    CHANNELS 3 Zrotation Xrotation Yrotation
                    JOINT rThumb2_End
                    {
                      OFFSET -1.8127 -1.216 2.2227
                      CHANNELS 3 Zrotation Xrotation Yrotation
                      End Site
                      {
                        OFFSET -0.0181 -0.0122 0.0222
                      }
                    }
                  }
                }
                JOINT rCarpal1
                {
                  OFFSET -0.9571 1.114 1.7695
                  CHANNELS 3 Zrotation Xrotation Yrotation
                  JOINT rIndex1
                  {
                    OFFSET -4.1246 0.487 4.1451
                    CHANNELS 3 Zrotation Xrotation Yrotation
                    JOINT rIndex2
                    {
                      OFFSET -3.4052 -1.454 2.7682
                      CHANNELS 3 Zrotation Xrotation Yrotation
                      JOINT rIndex2_End
                      {
                        OFFSET -1.4531 -1.795 1.2713
                        CHANNELS 3 Zrotation Xrotation Yrotation
                        End Site
                        {
                          OFFSET -0.0145 -0.018 0.0127
                        }
                      }
                    }
                  }
                  JOINT rMid1
                  {
                    OFFSET -5.6954 0.21 2.1184
                    CHANNELS 3 Zrotation Xrotation Yrotation
                    JOINT rMid2
                    {
                      OFFSET -3.9766 -1.54 2.3863
                      CHANNELS 3 Zrotation Xrotation Yrotation
                      JOINT rMid2_End
                      {
                        OFFSET -1.4042 -1.926 1.125
                        CHANNELS 3 Zrotation Xrotation Yrotation
                        End Site
                        {
                          OFFSET -0.014 -0.0193 0.0113
                        }
                      }
                    }
                  }
                }
                JOINT rCarpal2
                {
                  OFFSET -2.0956 0.66 -0.3894
                  CHANNELS 3 Zrotation Xrotation Yrotation
                  JOINT rRing1
                  {
                    OFFSET -5.0395 -0.09 2.4971
                    CHANNELS 3 Zrotation Xrotation Yrotation
                    JOINT rRing2
                    {
                      OFFSET -3.7921 -1.552 1.4806
                      CHANNELS 3 Zrotation Xrotation Yrotation
                      JOINT rRing2_End
                      {
                        OFFSET -1.4655 -1.808 0.9609
                        CHANNELS 3 Zrotation Xrotation Yrotation
                        End Site
                        {
                          OFFSET -0.0147 -0.0181 0.0096
                        }
                      }
                    }
                  }
                  JOINT rPinky1
                  {
                    OFFSET -4.9141 -1.269 0.3592
                    CHANNELS 3 Zrotation Xrotation Yrotation
                    JOINT rPinky2
                    {
                      OFFSET -3.1477 -1.685 0.8462
                      CHANNELS 3 Zrotation Xrotation Yrotation
                      JOINT rPinky2_End
                      {
                        OFFSET -0.8055 -1.585 0.7955
                        CHANNELS 3 Zrotation Xrotation Yrotation
                        End Site
                        {
                          OFFSET -0.0081 -0.0158 0.008
                        }
                      }
                    }
                  }
                }
              }
            }
          }
        }
      }
    }
  }
  JOINT lThigh
  {
    OFFSET 8.367 -8.2066 0.5982
    CHANNELS 3 Zrotation Xrotation Yrotation
    JOINT lShin
    {
      OFFSET 2.1923 -43.463 -0.4932
      CHANNELS 3 Zrotation Xrotation Yrotation
      JOINT lFoot
      {
        OFFSET 0.7333 -45.8593 -2.6451
        CHANNELS 3 Zrotation Xrotation Yrotation
        End Site
        {
          OFFSET 2.6618 -4.2699 12.3931
        }
      }
    }
  }
  JOINT rThigh
  {
    OFFSET -8.367 -8.2066 0.5982
    CHANNELS 3 Zrotation Xrotation Yrotation
    JOINT rShin
    {
      OFFSET -2.1923 -43.463 -0.4931
      CHANNELS 3 Zrotation Xrotation Yrotation
      JOINT rFoot
      {
        OFFSET -0.7333 -45.8593 -2.6451
        CHANNELS 3 Zrotation Xrotation Yrotation
        End Site
        {
          OFFSET -2.6618 -4.2699 12.3931
        }
      }
    }
  }
}
MOTION
Frames:	4
Frame Time:	0.0333333
42.0059 25.0079 46.4857 89.3108 -89.7452 -90.4221 0.248993 4.46334 -0.163183 0.513129 8.92592 -0.347477 0.513129 8.92591 -0.347477 -1.66756e-006 15.3491 8.39289e-007 -8.93674e-008 -24.0027 -2.601e-008 -25.0091 15.2493 12.6621 10.9497 -19.4403 -68.7774 -0.0171992 -8.31999 -74.7675 52.922 -36.0536 42.4859 3.08522e-008 7.17369e-007 -1.07714e-007 2.20695e-031 3.18055e-015 -3.97569e-015 -3.97569e-016 3.18055e-015 -3.97569e-015 3.97569e-016 -3.18055e-015 7.95139e-016 3.08522e-008 7.17369e-007 -1.07714e-007 1.98785e-016 3.18055e-015 -3.18055e-015 1.98785e-016 3.18055e-015 -2.38542e-015 3.08522e-008 7.17369e-007 -1.07714e-007 1.98785e-016 3.18055e-015 -3.18055e-015 1.98785e-016 3.18055e-015 -2.38542e-015 3.97569e-016 -3.18055e-015 7.95139e-016 3.08522e-008 7.17369e-007 -1.07714e-007 1.98785e-016 3.18055e-015 -3.18055e-015 1.98785e-016 3.18055e-015 -2.38542e-015 3.08522e-008 7.17369e-007 -1.07714e-007 1.98785e-016 3.18055e-015 -3.18055e-015 1.98785e-016 3.18055e-015 -2.38542e-015 23.0722 5.16401 -16.1429 -7.20632 -6.66905 75.3566 -0.812936 -9.31856 69.6907 -50.3475 -21.0125 -35.9701 -1.53376e-007 -6.5862e-007 5.15281e-007 -3.97569e-015 -3.18055e-015 -1.59028e-015 -1.53376e-007 -6.5862e-007 5.15281e-007 2.38542e-015 -3.18055e-015 -0 -1.53376e-007 -6.5862e-007 5.15281e-007 -3.18055e-015 -3.18055e-015 -0 -1.53376e-007 -6.5862e-007 5.15281e-007 -1.53376e-007 -6.5862e-007 5.15281e-007 -3.18055e-015 -3.18055e-015 -0 -1.53376e-007 -6.5862e-007 5.15281e-007 2.38542e-015 -3.18055e-015 -0 -1.53376e-007 -6.5862e-007 5.15281e-007 -3.18055e-015 -3.18055e-015 -0 -1.53376e-007 -6.5862e-007 5.15281e-007 -1.53376e-007 -6.5862e-007 5.15281e-007 -3.18055e-015 -3.18055e-015 -0 -1.53376e-007 -6.5862e-007 5.15281e-007 96.0132 -46.2721 116.387 118.104 77.2897 -117.141 15.6245 54.94 -9.2756 -96.0124 -46.2826 -116.409 -118.066 77.2932 117.081 -15.6486 54.9427 9.27526 
42.0059 25.0079 46.4857 89.3108 -89.7452 -90.4221 0.249384 4.27349 -0.161161 0.513011 8.54621 -0.342468 0.513011 8.54624 -0.342469 2.70302e-007 15.698 3.71774e-007 2.09208e-008 -24.0027 -1.04421e-008 -25.1126 15.9307 12.3037 10.9552 -19.3613 -68.4988 0.0136782 -8.24163 -73.636 52.4177 -36.6404 41.9908 -3.97569e-016 1.59028e-015 -7.95139e-016 -1.98785e-016 3.18055e-015 -0 -1.98785e-016 1.59028e-015 -0 -0 -1.59028e-015 -0 -1.78906e-015 3.18055e-015 5.56597e-015 -7.95139e-016 1.59028e-015 7.95139e-016 -3.97569e-016 1.59028e-015 -0 -1.78906e-015 3.18055e-015 5.56597e-015 -7.95139e-016 1.59028e-015 7.95139e-016 -3.97569e-016 1.59028e-015 -0 -0 -1.59028e-015 -0 -1.78906e-015 3.18055e-015 5.56597e-015 -7.95139e-016 1.59028e-015 7.95139e-016 -3.97569e-016 1.59028e-015 -0 -1.78906e-015 3.18055e-015 5.56597e-015 -7.95139e-016 1.59028e-015 7.95139e-016 -3.97569e-016 1.59028e-015 -0 23.1152 5.80708 -15.8358 -7.20633 -6.66905 75.3566 -0.870233 -9.24639 68.5344 -50.0612 -21.6437 -35.6146 3.18055e-015 3.18055e-015 -1.59028e-015 1.53413e-007 6.58057e-007 -5.16206e-007 -1.19271e-015 -6.36111e-015 -6.36111e-015 3.18055e-015 0 -1.59028e-015 -2.38542e-015 6.36111e-015 4.77083e-015 1.53413e-007 6.58057e-007 -5.16206e-007 1.19271e-015 -9.54166e-015 -4.77083e-015 -2.38542e-015 6.36111e-015 4.77083e-015 1.53413e-007 6.58057e-007 -5.16206e-007 1.19271e-015 -9.54166e-015 -4.77083e-015 3.18055e-015 0 -1.59028e-015 -2.38542e-015 6.36111e-015 4.77083e-015 1.53413e-007 6.58057e-007 -5.16206e-007 1.19271e-015 -9.54166e-015 -4.77083e-015 -2.38542e-015 6.36111e-015 4.77083e-015 1.53413e-007 6.58057e-007 -5.16206e-007 1.19271e-015 -9.54166e-015 -4.77083e-015 96.0132 -46.2721 116.387 118.104 77.2897 -117.141 15.6245 54.94 -9.2756 -96.0124 -46.2826 -116.409 -118.066 77.2932 117.081 -15.6486 54.9427 9.27526 
42.0059 25.0079 46.4857 89.3108 -89.7452 -90.4221 0.249769 4.08359 -0.159132 0.512904 8.16643 -0.337454 0.512904 8.16641 -0.337454 -1.81976e-006 16.0483 9.86253e-007 -9.07346e-008 -24.0027 -3.30056e-008 -25.2121 16.6131 11.945 10.9604 -19.2822 -68.2204 0.0430179 -8.16253 -72.503 51.9028 -37.224 41.485 -3.97569e-016 1.59028e-015 1.59028e-015 -7.95139e-016 1.59028e-015 1.59028e-015 -7.95139e-016 3.18055e-015 -7.95139e-016 -2.20695e-032 1.59028e-015 7.95139e-016 -2.5842e-015 1.59028e-015 9.54166e-015 -1.98785e-016 4.77083e-015 7.95139e-016 -1.98785e-016 3.18055e-015 7.95139e-016 -2.5842e-015 1.59028e-015 9.54166e-015 -1.98785e-016 4.77083e-015 7.95139e-016 -1.98785e-016 3.18055e-015 7.95139e-016 -2.20695e-032 1.59028e-015 7.95139e-016 -2.5842e-015 1.59028e-015 9.54166e-015 -1.98785e-016 4.77083e-015 7.95139e-016 -1.98785e-016 3.18055e-015 7.95139e-016 -2.5842e-015 1.59028e-015 9.54166e-015 -1.98785e-016 4.77083e-015 7.95139e-016 -1.98785e-016 3.18055e-015 7.95139e-016 23.1548 6.45071 -15.5286 -7.20633 -6.66906 75.3566 -0.926109 -9.17295 67.3765 -49.7692 -22.2736 -35.2538 -1.27896e-006 -5.18971e-007 3.44641e-007 -1.53472e-007 -6.57471e-007 5.17142e-007 7.95139e-016 -9.54166e-015 -1.59028e-015 3.57812e-015 -3.18055e-015 -0 -1.27896e-006 -5.18971e-007 3.44641e-007 -1.53472e-007 -6.57471e-007 5.17142e-007 2.78299e-015 -9.54166e-015 -0 -1.27896e-006 -5.18971e-007 3.44641e-007 -1.53472e-007 -6.57471e-007 5.17142e-007 2.78299e-015 -9.54166e-015 -0 3.57812e-015 -3.18055e-015 -0 -1.27896e-006 -5.18971e-007 3.44641e-007 -1.53472e-007 -6.57471e-007 5.17142e-007 2.78299e-015 -9.54166e-015 -0 -1.27896e-006 -5.18971e-007 3.44641e-007 -1.53472e-007 -6.57471e-007 5.17142e-007 2.78299e-015 -9.54166e-015 -0 96.0132 -46.2721 116.387 118.104 77.2897 -117.141 15.6245 54.94 -9.2756 -96.0124 -46.2826 -116.409 -118.066 77.2932 117.081 -15.6486 54.9427 9.27526 
42.0059 25.0079 46.4857 89.3108 -89.7452 -90.4221 0.250132 3.89362 -0.157019 0.51277 7.78651 -0.332276 0.51277 7.78651 -0.332276 -1.90956e-006 16.3987 8.28051e-007 -3.66886e-008 -24.0027 -9.10778e-008 -25.3076 17.2967 11.586 10.9651 -19.2032 -67.942 0.070823 -8.08277 -71.3687 51.377 -37.8043 40.9684 1.98785e-016 0 -7.95139e-016 1.98785e-016 -1.59028e-015 -0 0 0 -7.95139e-016 1.98785e-016 0 -7.95139e-016 -1.19271e-015 -1.59028e-015 6.36111e-015 -1.98785e-016 0 -1.59028e-015 -1.98785e-016 -1.59028e-015 -1.59028e-015 -1.19271e-015 -1.59028e-015 6.36111e-015 -1.98785e-016 0 -1.59028e-015 -1.98785e-016 -1.59028e-015 -1.59028e-015 1.98785e-016 0 -7.95139e-016 -1.19271e-015 -1.59028e-015 6.36111e-015 -1.98785e-016 0 -1.59028e-015 -1.98785e-016 -1.59028e-015 -1.59028e-015 -1.19271e-015 -1.59028e-015 6.36111e-015 -1.98785e-016 0 -1.59028e-015 -1.98785e-016 -1.59028e-015 -1.59028e-015 23.191 7.09493 -15.2213 -7.20634 -6.66906 75.3565 -0.980547 -9.09832 66.2172 -49.4714 -22.9022 -34.8877 -1.19271e-015 6.36111e-015 1.59028e-015 7.95139e-016 0 -1.59028e-015 1.53554e-007 6.56862e-007 -5.18092e-007 -1.19271e-015 6.36111e-015 1.59028e-015 -2.78299e-015 3.18055e-015 4.77083e-015 -2.78299e-015 3.18055e-015 -1.59028e-015 1.53554e-007 6.56862e-007 -5.18092e-007 -2.78299e-015 3.18055e-015 4.77083e-015 -2.78299e-015 3.18055e-015 -1.59028e-015 1.53554e-007 6.56862e-007 -5.18092e-007 -1.19271e-015 6.36111e-015 1.59028e-015 -2.78299e-015 3.18055e-015 4.77083e-015 -2.78299e-015 3.18055e-015 -1.59028e-015 1.53554e-007 6.56862e-007 -5.18092e-007 -2.78299e-015 3.18055e-015 4.77083e-015 -2.78299e-015 3.18055e-015 -1.59028e-015 1.53554e-007 6.56862e-007 -5.18092e-007 96.0132 -46.2721 116.387 118.104 77.2897 -117.141 15.6245 54.94 -9.2756 -96.0124 -46.2826 -116.409 -118.066 77.2932 117.081 -15.6486 54.9427 9.27526 
